<?xml version="1.0" encoding="UTF-8" standalone="no"?>
<!DOCTYPE svg PUBLIC "-//W3C//DTD SVG 1.1//EN" "http://www.w3.org/Graphics/SVG/1.1/DTD/svg11.dtd">
<svg width="100%" height="100%" viewBox="0 0 800 600" version="1.1" xmlns="http://www.w3.org/2000/svg" xmlns:xlink="http://www.w3.org/1999/xlink" xml:space="preserve" xmlns:serif="http://www.serif.com/" style="fill-rule:evenodd;clip-rule:evenodd;stroke-linejoin:round;stroke-miterlimit:2;">
    <g transform="matrix(0.897961,0,0,0.749231,98.754,-5.96168)">
        <path d="M529.063,-28.739C511.39,49.741 451.85,99.013 427.802,169.108C418.401,196.513 414.406,227.09 420.417,263.814C424.138,286.542 436.192,302.531 452.552,311.146C468.812,319.708 489.339,320.984 510.191,314.309C531.369,307.53 549.626,296.125 566.109,282.276C590.754,261.57 611.43,235.398 631.995,211.102C638.065,203.931 644.9,196.955 652.593,191.305C660.274,185.664 668.81,181.344 678.293,179.482C696.559,175.895 711.11,180.344 723.746,188.904C753.375,208.973 772.579,251.431 804.13,266.601C825.43,276.843 849.152,275.777 872.821,269.332C907.222,259.966 941.515,239.235 968.031,225.6L967.573,224.706C941.109,238.314 906.891,259.015 872.557,268.363C849.129,274.742 825.648,275.833 804.564,265.696C773.054,250.545 753.899,208.115 724.308,188.071C711.463,179.37 696.67,174.849 678.1,178.496C670.393,180.009 663.3,183.117 656.777,187.234C647.043,193.378 638.578,201.771 631.23,210.452C610.701,234.706 590.066,260.837 565.464,281.507C549.08,295.272 530.936,306.614 509.885,313.352C489.313,319.937 469.061,318.704 453.019,310.257C436.915,301.776 425.069,286.024 421.407,263.651C415.427,227.118 419.398,196.698 428.751,169.434C452.81,99.306 512.36,50 530.042,-28.518L529.063,-28.739Z" style="fill:rgb(31,41,55);"/>
    </g>
    <g transform="matrix(0.984533,0,0,0.865262,-107.043,-21.4269)">
        <path d="M193.462,-25.757C241.646,-4.809 315.401,30.303 357.646,79.24C386.917,113.148 401.035,153.705 380.863,200.795C367.879,231.105 327.971,267.94 303.639,302.999C291.306,320.767 282.975,338.093 284.042,353.883C284.71,363.77 288.758,372.205 294.865,379.797C316.207,406.328 362.943,422.452 376.815,455.086C391.684,490.065 367.683,523.717 374.288,555.412C376.798,567.458 383.673,579.231 398.681,590.682C402.618,593.686 406.916,596.325 411.383,598.656C415.833,600.977 420.45,602.993 425.044,604.756C469.411,621.791 510.2,617.376 546.637,600.195C582.843,583.124 614.752,553.44 641.596,519.676C659.339,497.359 674.331,473.366 691.817,451.139C699.258,441.68 707.151,432.541 715.902,423.988C747.107,393.492 781.382,376.529 818.294,369.164C854.827,361.875 893.941,363.983 935.215,371.664L935.389,370.709C893.988,363.004 854.754,360.9 818.108,368.211C781.023,375.611 746.586,392.65 715.234,423.29C706.452,431.872 698.531,441.043 691.064,450.535C673.58,472.761 658.589,496.752 640.847,519.068C614.097,552.713 582.309,582.304 546.231,599.315C510.017,616.39 469.48,620.778 425.386,603.848C420.825,602.097 416.241,600.097 411.824,597.793C407.406,595.488 403.154,592.878 399.261,589.907C384.49,578.637 377.699,567.067 375.229,555.212C368.611,523.459 392.594,489.745 377.698,454.702C363.794,421.994 317.002,405.776 295.611,379.184C289.631,371.75 285.655,363.497 285.001,353.816C283.946,338.213 292.239,321.115 304.426,303.556C328.795,268.444 368.742,231.537 381.745,201.181C402.086,153.696 387.886,112.793 358.37,78.601C316.032,29.557 242.131,-5.656 193.842,-26.65L193.462,-25.757Z" style="fill:rgb(31,41,55);"/>
    </g>
</svg>
